<svg id="レイヤー_2" data-name="レイヤー 2" xmlns="http://www.w3.org/2000/svg" viewBox="0 0 245.5 280.36"><defs><style>.cls-1{fill:#66baff;}.cls-2{fill:#5295cc;}.cls-3{fill:#cce8ff;}.cls-4{fill:none;stroke:#5295cc;stroke-miterlimit:10;}.cls-5{fill:#fff;}</style></defs><title>Liqlidiconmono</title><path class="cls-1" d="M122.74,280.36l112.74-65.1a20,20,0,0,0,10-17.32V124.47L122.74,195.33Z"/><path class="cls-2" d="M0,124.46l122.73,70.87v85L10,215.27A20,20,0,0,1,0,198Z"/><polygon class="cls-1" points="24.56 110.29 122.74 166.99 220.93 110.28 245.48 124.47 122.74 195.33 0.01 124.46 24.56 110.29"/><polygon class="cls-2" points="0.01 96.11 122.74 166.99 122.74 138.63 0 67.77 0.01 96.11"/><polygon class="cls-3" points="245.48 67.76 245.5 96.11 122.74 166.99 122.74 138.63 245.48 67.76"/><path class="cls-3" d="M112.74,2.68,0,67.77l122.74,70.86L245.48,67.76,132.74,2.68A20,20,0,0,0,112.74,2.68Z"/><line class="cls-4" x1="220.94" y1="53.59" x2="126.23" y2="108.25"/><path class="cls-5" d="M124.54,104.89a3.76,3.76,0,1,0,5.13,1.38A3.76,3.76,0,0,0,124.54,104.89Z"/><path class="cls-2" d="M124.29,104.46a4.26,4.26,0,1,1-1.56,5.82,4.26,4.26,0,0,1,1.56-5.82C126.32,103.28,122.25,105.63,124.29,104.46Zm3.76,6.51a3.26,3.26,0,1,0-4.46-1.19,3.27,3.27,0,0,0,4.46,1.19Z"/><line class="cls-4" x1="147.28" y1="96.12" x2="126.26" y2="83.97"/><path class="cls-5" d="M128.32,80.82A3.76,3.76,0,1,0,129.7,86,3.75,3.75,0,0,0,128.32,80.82Z"/><path class="cls-2" d="M128.57,80.39A4.26,4.26,0,1,1,122.75,82a4.26,4.26,0,0,1,5.82-1.56Zm-3.76,6.51a3.26,3.26,0,1,0-1.19-4.45,3.25,3.25,0,0,0,1.19,4.45Z"/><polyline class="cls-4" points="52.61 65.74 98.21 39.42 147.3 67.77 168.32 55.62"/><path class="cls-5" d="M54.67,68.89a3.76,3.76,0,1,1,1.38-5.13A3.75,3.75,0,0,1,54.67,68.89Z"/><path class="cls-2" d="M54.92,69.33a4.26,4.26,0,1,0-5.81-1.56,4.26,4.26,0,0,0,5.81,1.56Zm-3.75-6.52A3.26,3.26,0,1,1,50,67.27a3.27,3.27,0,0,1,1.2-4.46Z"/><path class="cls-5" d="M170,59a3.76,3.76,0,1,0-5.14-1.37A3.76,3.76,0,0,0,170,59Z"/><path class="cls-2" d="M170.27,59.42a4.26,4.26,0,1,1,1.55-5.82,4.27,4.27,0,0,1-1.55,5.82C168.23,60.59,172.3,58.24,170.27,59.42Zm-3.77-6.51A3.26,3.26,0,1,0,171,54.1a3.26,3.26,0,0,0-4.46-1.19Z"/><polyline class="cls-4" points="122.75 53.59 73.65 81.94 94.69 94.09"/><path class="cls-5" d="M92.62,97.24a3.76,3.76,0,1,0-1.38-5.14A3.77,3.77,0,0,0,92.62,97.24Z"/><path class="cls-2" d="M92.37,97.67a4.26,4.26,0,1,1,5.82-1.56,4.28,4.28,0,0,1-5.82,1.56C90.34,96.49,94.41,98.84,92.37,97.67Zm3.76-6.51a3.26,3.26,0,1,0,1.19,4.45,3.25,3.25,0,0,0-1.19-4.45Z"/><line class="cls-4" x1="98.2" y1="11.07" x2="143.78" y2="37.41"/><path class="cls-5" d="M141.71,40.55a3.76,3.76,0,1,0-1.37-5.13A3.76,3.76,0,0,0,141.71,40.55Z"/><path class="cls-2" d="M141.46,41a4.26,4.26,0,1,1,5.82-1.56A4.28,4.28,0,0,1,141.46,41C139.43,39.81,143.49,42.16,141.46,41Zm3.76-6.51a3.26,3.26,0,1,0,1.19,4.45,3.26,3.26,0,0,0-1.19-4.45Z"/></svg>