<svg id="レイヤー_3" data-name="レイヤー 3" xmlns="http://www.w3.org/2000/svg" viewBox="0 0 245.49 283.47"><defs><style>.cls-1{fill:#cce8ff;}.cls-2{fill:#5295cc;}.cls-3{fill:#66baff;}</style></defs><title>LisearchBlogicon</title><polygon class="cls-1" points="122.74 283.47 245.48 212.61 245.48 70.87 220.93 85.04 220.93 113.4 196.38 127.57 196.38 155.9 171.83 170.09 171.83 198.44 147.29 212.6 147.3 240.95 122.77 255.13 122.74 283.47"/><polygon class="cls-2" points="122.74 283.47 122.77 255.13 98.21 240.95 98.19 212.61 73.64 198.42 73.64 170.08 49.09 155.9 49.09 127.57 24.55 113.39 24.55 85.04 0 70.87 0 212.6 122.74 283.47"/><polygon class="cls-1" points="122.77 28.34 24.55 85.04 0 70.87 122.74 0 245.48 70.87 220.93 85.04 122.77 28.34"/><polygon class="cls-1" points="122.77 56.7 24.55 113.39 49.09 127.57 122.74 85.05 196.38 127.57 220.93 113.4 122.77 56.7"/><polygon class="cls-1" points="122.74 113.39 49.09 155.9 73.64 170.08 122.71 141.71 171.83 170.09 196.38 155.9 122.74 113.39"/><polygon class="cls-1" points="122.73 170.09 73.64 198.42 98.19 212.61 122.77 198.42 147.29 212.6 171.83 198.44 122.73 170.09"/><polygon class="cls-1" points="122.77 226.76 98.21 240.95 122.77 255.13 147.3 240.95 122.77 226.76"/><polygon class="cls-3" points="24.55 85.04 24.55 113.39 122.77 56.7 220.93 113.4 220.93 85.04 122.77 28.34 24.55 85.04"/><polygon class="cls-3" points="49.09 127.57 122.74 85.05 196.38 127.57 196.38 155.9 122.74 113.39 49.09 155.9 49.09 127.57"/><polygon class="cls-3" points="122.71 141.71 171.83 170.09 171.83 198.44 122.73 170.09 73.64 198.42 73.64 170.08 122.71 141.71"/><polygon class="cls-3" points="122.77 198.42 147.29 212.6 147.3 240.95 122.77 226.76 98.21 240.95 98.19 212.61 122.77 198.42"/></svg>