<svg xmlns="http://www.w3.org/2000/svg" viewBox="0 0 520 50"><defs><style>.cls-1{fill:none;stroke:#707070;stroke-miterlimit:10;}.cls-2{fill:#66baff;}</style></defs><title>partition2</title><g id="レイヤー_1" data-name="レイヤー 1"><line class="cls-1" x1="204" y1="25.5" x2="-0.5" y2="25.5"/><line class="cls-1" x1="520" y1="25.5" x2="315.5" y2="25.5"/></g><g id="レイヤー_2" data-name="レイヤー 2"><path class="cls-2" d="M278.75,28A1.36,1.36,0,0,0,280,26.62V23.38A1.36,1.36,0,0,0,278.75,22l-4.28-.33a.72.72,0,0,1-.62-.45l-1.4-3.4a.71.71,0,0,1,.11-.74l2.8-3.27a1.35,1.35,0,0,0-.08-1.84L273,9.72a1.35,1.35,0,0,0-1.84-.08l-3.27,2.8a.71.71,0,0,1-.74.11l-3.4-1.41a.71.71,0,0,1-.45-.61L263,6.25A1.36,1.36,0,0,0,261.62,5h-3.24A1.36,1.36,0,0,0,257,6.25l-.33,4.28a.73.73,0,0,1-.45.62l-3.4,1.41a.73.73,0,0,1-.74-.12l-3.27-2.8a1.36,1.36,0,0,0-1.84.08L244.72,12a1.36,1.36,0,0,0-.08,1.84l2.8,3.27a.71.71,0,0,1,.11.74l-1.41,3.4a.71.71,0,0,1-.61.45l-4.28.33A1.36,1.36,0,0,0,240,23.38v3.23A1.36,1.36,0,0,0,241.25,28l4.28.33a.73.73,0,0,1,.62.45l1.4,3.4a.71.71,0,0,1-.11.74l-2.8,3.27a1.36,1.36,0,0,0,.08,1.84L247,40.28a1.35,1.35,0,0,0,1.84.08l3.27-2.8a.71.71,0,0,1,.74-.11l3.4,1.4a.72.72,0,0,1,.45.62l.33,4.28A1.37,1.37,0,0,0,258.38,45h3.24A1.37,1.37,0,0,0,263,43.75l.33-4.28a.74.74,0,0,1,.45-.62l3.4-1.4a.71.71,0,0,1,.74.11l3.27,2.8a1.35,1.35,0,0,0,1.84-.08L275.28,38a1.35,1.35,0,0,0,.08-1.84l-2.8-3.27a.71.71,0,0,1-.11-.74l1.41-3.4a.69.69,0,0,1,.61-.45ZM260,31.76a6.76,6.76,0,1,1,4.78-2A6.7,6.7,0,0,1,260,31.76Z"/></g></svg>