<svg xmlns="http://www.w3.org/2000/svg" viewBox="0 0 520 50"><defs><style>.cls-1{fill:none;stroke:#707070;stroke-miterlimit:10;}.cls-2{fill:#66baff;}</style></defs><title>partition1</title><g id="レイヤー_1" data-name="レイヤー 1"><line class="cls-1" x1="204" y1="25.5" x2="-0.5" y2="25.5"/><line class="cls-1" x1="520" y1="25.5" x2="315.5" y2="25.5"/></g><g id="レイヤー_2" data-name="レイヤー 2"><path class="cls-2" d="M274.88,17.8a14.8,14.8,0,0,0-29.6,0,14.55,14.55,0,0,0,2,7.49h0v0h0a26.28,26.28,0,0,0,3.35,4.19A11.47,11.47,0,0,1,252,31.23a3.25,3.25,0,0,1,.47,1.51v8.2A4.58,4.58,0,0,0,257,45.52h.66a2.68,2.68,0,0,0,4.79,0h.66a4.58,4.58,0,0,0,4.58-4.58v-8.2h0a3.25,3.25,0,0,1,.47-1.51,17,17,0,0,1,2.13-2.65,18.63,18.63,0,0,0,2.51-3.26h0v0h0A14.65,14.65,0,0,0,274.88,17.8Zm-10,24.88a2.45,2.45,0,0,1-1.74.73H257a2.45,2.45,0,0,1-1.74-.73,2.49,2.49,0,0,1-.73-1.74v-.46l10.33,2.2Zm.73-1.74a2.12,2.12,0,0,1-.05.44l-11-2.34V36.16l11,2.35Zm0-3.87-11-2.35v-.95h11ZM271,24.24h0a23.82,23.82,0,0,1-3.11,3.86,12.93,12.93,0,0,0-1.54,2.07,6.11,6.11,0,0,0-.59,1.47H254.4a6,6,0,0,0-.59-1.47,18.37,18.37,0,0,0-2.4-3,16.59,16.59,0,0,1-2.25-2.9h0a12.69,12.69,0,1,1,21.85,0Z"/></g></svg>