<svg xmlns="http://www.w3.org/2000/svg" viewBox="0 0 520 50"><defs><style>.cls-1{fill:none;stroke:#707070;stroke-miterlimit:10;}.cls-2{fill:#66baff;}</style></defs><title>partiton4</title><g id="レイヤー_1" data-name="レイヤー 1"><line class="cls-1" x1="204" y1="25.5" x2="-0.5" y2="25.5"/><line class="cls-1" x1="520" y1="25.5" x2="315.5" y2="25.5"/></g><g id="レイヤー_2" data-name="レイヤー 2"><path class="cls-2" d="M246.31,33.66c0-.11,0-.2,0-.31v-.89a3.77,3.77,0,0,1,.21-1.25,24,24,0,0,0,3.28-6.48,20.34,20.34,0,0,1-2.2-8.46,19.44,19.44,0,0,1,.12-2,7.89,7.89,0,0,0-5.78-2.46c-4.63,0-8.39,3.77-8.39,9.65,0,4.69,3.83,9.79,3.83,9.79a4,4,0,0,1,.2,1.25v.89a2.84,2.84,0,0,1-1.66,2.59l-6.07,2.48a4.76,4.76,0,0,0-2.7,3.48l-.1,1.33a2.47,2.47,0,0,0,.65,1.89,2.52,2.52,0,0,0,1.84.8h9.92l.41-5.23,0-.14a8.55,8.55,0,0,1,4.83-6.24Z"/><path class="cls-2" d="M293.89,41.9a4.77,4.77,0,0,0-2.69-3.48l-6.08-2.48a2.84,2.84,0,0,1-1.66-2.59v-.89a3.77,3.77,0,0,1,.21-1.25s3.82-5.1,3.82-9.79c0-5.88-3.76-9.65-8.4-9.65a7.86,7.86,0,0,0-5.77,2.47,19.09,19.09,0,0,1,.12,2,20.49,20.49,0,0,1-2.19,8.46,23.7,23.7,0,0,0,3.28,6.48,4,4,0,0,1,.2,1.25v.89c0,.11,0,.2,0,.31l1.5.61a8.64,8.64,0,0,1,5,6.28l0,.14.41,5.23h9.92a2.48,2.48,0,0,0,1.83-.8,2.44,2.44,0,0,0,.66-1.89Z"/><path class="cls-2" d="M275.14,36.85l-7.35-3a3.45,3.45,0,0,1-2-3.14V29.63a4.6,4.6,0,0,1,.25-1.51s4.62-6.16,4.62-11.85c0-7.11-4.54-11.68-10.15-11.68s-10.16,4.57-10.16,11.68c0,5.69,4.63,11.85,4.63,11.85a4.6,4.6,0,0,1,.25,1.51v1.08a3.47,3.47,0,0,1-2,3.14l-7.35,3a5.74,5.74,0,0,0-3.26,4.2l-.38,4.87h36.56l-.38-4.87A5.76,5.76,0,0,0,275.14,36.85Z"/></g></svg>