<svg xmlns="http://www.w3.org/2000/svg" viewBox="0 0 520 50"><defs><style>.cls-1{fill:none;stroke:#707070;stroke-miterlimit:10;}.cls-2{fill:#66baff;}</style></defs><title>partition3</title><g id="レイヤー_1" data-name="レイヤー 1"><line class="cls-1" x1="204" y1="24.5" x2="-0.5" y2="24.5"/><line class="cls-1" x1="520" y1="24.5" x2="315.5" y2="24.5"/></g><g id="レイヤー_2" data-name="レイヤー 2"><polygon class="cls-2" points="259.09 22.8 254.48 19.3 252.64 21.72 257.26 25.22 259.09 22.8"/><path class="cls-2" d="M268.4,40.8l-2.47-2.09A14.63,14.63,0,0,0,269.77,36a14.45,14.45,0,0,0,2.49-17.09A14.59,14.59,0,0,0,268,14l3.34-4.41L263.91,4,253.63,17.54l7.38,5.6,4.42-5.81a10.26,10.26,0,1,1-13,15.84l-.33-.34h2V30.92h-9.23v1.91H247a14.37,14.37,0,0,0,7.92,6.59l-1.63,1.38a3.93,3.93,0,0,0-1.4,3v2H269.8v-2A3.93,3.93,0,0,0,268.4,40.8Z"/></g></svg>